<svg width="38" height="45" viewBox="0 0 38 45" fill="none" xmlns="http://www.w3.org/2000/svg">
<path d="M11.3561 37.338C7.86148 36.752 2.35217 34.2018 0.0343416 32.9999C-0.179612 35.3887 0.658373 37.4506 1.10411 38.183C3.67156 43.1858 13.0499 44.8121 17.4181 44.9999H36.9414C37.1197 44.9624 36.9949 44.2788 35.0693 41.845C33.1437 39.4112 28.438 38.2957 24.8721 38.5774C19.1667 38.8027 15.7243 38.0704 11.3561 37.338Z" fill="white"/>
<path fill-rule="evenodd" clip-rule="evenodd" d="M18.03 0.154076C27.546 0.239334 35.1477 7.49142 35.0094 16.3522C34.8711 25.2129 27.0452 32.327 17.5292 32.242C8.01303 32.1568 0.41054 24.9047 0.548837 16.0439C0.687145 7.18306 8.51388 0.0689447 18.03 0.154076ZM17.9865 7.50831C12.914 7.46293 8.74136 11.2866 8.66675 16.0491C8.59241 20.8118 12.6447 24.7099 17.7173 24.7552C22.7898 24.8004 26.9618 20.976 27.0361 16.2134C27.1102 11.4511 23.0589 7.55386 17.9865 7.50831Z" fill="white"/>
<path d="M32 33.9999L26 29.2039C33.584 24.8321 33.1907 18.6604 32.0269 16.0591L32 15.9999C32.009 16.0194 32.018 16.0392 32.0269 16.0591L38 29.2039L32 33.9999Z" fill="white"/>
</svg>
