<svg width="129" height="151" viewBox="0 0 129 151" fill="none" xmlns="http://www.w3.org/2000/svg">
<path d="M38.672 124.822C26.7715 122.82 8.01011 114.106 0.116947 110C-0.611652 118.162 2.24203 125.207 3.75994 127.709C12.5031 144.802 44.4401 150.358 59.3156 151H125.8C126.408 150.872 125.982 148.536 119.425 140.221C112.868 131.905 96.843 128.094 84.6997 129.056C65.2704 129.826 53.5476 127.324 38.672 124.822Z" fill="black"/>
<path fill-rule="evenodd" clip-rule="evenodd" d="M61.2888 0.818946C93.6368 1.10677 119.479 25.6089 119.008 55.5459C118.538 85.483 91.9342 109.519 59.5863 109.231C27.2382 108.944 1.39556 84.4415 1.86564 54.5044C2.33579 24.5672 28.9407 0.531319 61.2888 0.818946ZM61.1399 25.6657C43.8966 25.5126 29.7136 38.433 29.4609 54.5241C29.2084 70.6151 42.9816 83.7833 60.2247 83.9368C77.468 84.0901 91.6517 71.1704 91.9047 55.0794C92.1574 38.9881 78.3833 25.819 61.1399 25.6657Z" fill="#6750A4"/>
<path d="M109.5 113L90 97.2796C114.648 82.9499 113.37 62.7205 109.587 54.194L109.5 54C109.529 54.064 109.558 54.1286 109.587 54.194L129 97.2796L109.5 113Z" fill="black"/>
<path d="M38.672 124.822C26.7715 122.82 8.01011 114.106 0.116947 110C-0.611652 118.162 2.24203 125.207 3.75994 127.709C12.5031 144.802 44.4401 150.358 59.3156 151H125.8C126.408 150.872 125.982 148.536 119.425 140.221C112.868 131.905 96.843 128.094 84.6997 129.056C65.2704 129.826 53.5476 127.324 38.672 124.822Z" fill="#6750A4"/>
<path fill-rule="evenodd" clip-rule="evenodd" d="M61.2888 0.818946C93.6368 1.10677 119.479 25.6089 119.008 55.5459C118.538 85.483 91.9342 109.519 59.5863 109.231C27.2382 108.944 1.39556 84.4415 1.86564 54.5044C2.33579 24.5672 28.9407 0.531319 61.2888 0.818946ZM61.1399 25.6657C43.8966 25.5126 29.7136 38.433 29.4609 54.5241C29.2084 70.6151 42.9816 83.7833 60.2247 83.9368C77.468 84.0901 91.6517 71.1704 91.9047 55.0794C92.1574 38.9881 78.3833 25.819 61.1399 25.6657Z" fill="#6750A4"/>
<path d="M109.5 113L90 97.2796C114.648 82.9499 113.37 62.7205 109.587 54.194L109.5 54C109.529 54.064 109.558 54.1286 109.587 54.194L129 97.2796L109.5 113Z" fill="#6750A4"/>
</svg>
